<svg xmlns="http://www.w3.org/2000/svg" xmlns:xlink="http://www.w3.org/1999/xlink" version="1.0" x="0px" y="0px" viewBox="0 0 100 100" enable-background="new 0 0 100 100" xml:space="preserve"><g><path d="M44.9,23.8c-1.7-2.2-4.2-5.6-5.8-7.7c-0.9-1.1-2.5-1.4-3.7-0.6C16.4,27.8,5,45.3,5,64.3c0,2.5,0.3,4.8,0.8,6.9   c1.6,8.4,9.5,14.6,18.6,13.7c8.2-0.8,14.8-7.4,15.5-15.6c0.4-5.1-1.4-9.7-4.7-13l0,0c-3.5-3.5-5.3-6.7-5.3-9.5   c0-2.7,0.8-5.3,2.3-7.7c1.3-2.2,6.7-7.3,12.2-11.6C45.6,26.6,45.8,25,44.9,23.8z"></path><path d="M83.9,55.4c-2.9-3.1-4.4-6-4.4-8.6c0-2.7,0.8-5.3,2.3-7.7c1.3-2.2,6.4-7,12.2-11.6c1.1-0.9,1.4-2.5,0.5-3.7l-5.8-7.7   c-0.9-1.1-2.5-1.4-3.7-0.6C65.9,27.9,54.5,45.3,54.5,64.3c0,6.3,1.7,11.2,4.9,14.9l0,0c3.6,4.1,9.1,6.5,15.2,5.7   c7.6-1,13.8-7,14.8-14.6C90.3,64.4,88,58.9,83.9,55.4z"></path></g></svg>