<?xml version="1.0" encoding="utf-8"?>
<!-- Generator: Adobe Illustrator 20.1.0, SVG Export Plug-In . SVG Version: 6.00 Build 0)  -->
<svg version="1.1" id="Layer_1" xmlns="http://www.w3.org/2000/svg" xmlns:xlink="http://www.w3.org/1999/xlink" x="0px" y="0px"
	 viewBox="0 0 81.5 92.5" style="enable-background:new 0 0 81.5 92.5;" xml:space="preserve">
<style type="text/css">
	.st0{fill:url(#SVGID_1_);}
</style>
<linearGradient id="SVGID_1_" gradientUnits="userSpaceOnUse" x1="0" y1="46.25" x2="81.4629" y2="46.25">
	<stop  offset="0" style="stop-color:#16BFFD"/>
	<stop  offset="0.4879" style="stop-color:#6E79B3"/>
	<stop  offset="1" style="stop-color:#CB3066"/>
</linearGradient>
<path class="st0" d="M36.9,0C16.5,0,0,16.6,0,36.9c0,10.3,4.4,20.2,12,27.2c1.4,1.3,3.6,1.2,4.9-0.2c1.3-1.4,1.2-3.6-0.2-4.9
	C10.5,53.4,7,45.3,7,37C7,20.5,20.4,7.1,36.9,7.1c4.5,0,8.8,1,12.8,2.9C60.2,14.8,67,25.4,67,37v5.5c0,0.5,0.1,1.1,0.4,1.6l6.8,13
	c0.2,0.3,0.3,0.6,0.3,0.7c-0.2,0-0.4,0.1-0.8,0.1h-3.2c-1.9,0-3.5,1.6-3.5,3.5v12.4c0,1.9-1.5,3.4-3.3,3.5l-9.3-1.6
	c-0.1,0-0.2,0-0.3,0c0,0-0.1,0-0.2,0l0,0h-0.1c-0.2,0-0.4,0-0.5,0c0,0-0.1,0-0.2,0c-0.1,0-0.3,0-0.4,0.1c-0.1,0-0.1,0.1-0.2,0.1
	c-0.2,0.1-0.3,0.1-0.4,0.2c-0.1,0-0.1,0.1-0.2,0.1c-0.1,0.1-0.2,0.2-0.3,0.3c-0.1,0.1-0.1,0.1-0.2,0.2c-0.1,0.1-0.1,0.2-0.2,0.3
	c-0.1,0.1-0.1,0.2-0.2,0.3c-0.1,0.1-0.1,0.2-0.2,0.3c-0.1,0.1-0.2,0.2-0.2,0.3c0,0.1-0.1,0.2-0.1,0.3c0,0.2-0.1,0.3-0.1,0.4v0.1
	c0,0.1,0,0.2,0,0.3c0,0.1,0,0.2,0,0.3v6.2l-32.4,0v-9.8c0-1.9-1.6-3.5-3.5-3.5S11,73.8,11,75.7V88c0,2.5,2,4.5,4.5,4.5l38.4,0
	c1.9,0,3.5-1.6,3.5-3.5v-5.6l5.6,0.8c0.2,0,0.3,0,0.5,0c5.8,0,10.5-4.7,10.5-10.5v-8.8c2.9-0.1,5.2-1.3,6.5-3.4
	c1.3-2.2,1.3-5-0.1-7.6L74,41.7V37c0-14.3-8.4-27.4-21.3-33.4C47.8,1.2,42.5,0.1,36.9,0z"/>
</svg>
